{
    "accessors" : [
        {
            "bufferView" : 0,
            "componentType" : 5126,
            "count" : 673,
            "type" : "VEC3"
        },
        {
            "bufferView" : 1,
            "componentType" : 5126,
            "count" : 673,
            "type" : "VEC2"
        },
        {
            "bufferView" : 2,
            "componentType" : 5126,
            "count" : 673,
            "max" : [
                19.883987426757812,
                19.883987426757812,
                19.883987426757812
            ],
            "min" : [
                -19.883987426757812,
                -19.883987426757812,
                -19.883987426757812
            ],
            "type" : "VEC3"
        },
        {
            "bufferView" : 3,
            "componentType" : 5123,
            "count" : 3840,
            "type" : "SCALAR"
        }
    ],
    "asset" : {
        "generator" : "Khronos Blender glTF 2.0 I/O",
        "version" : "2.0"
    },
    "bufferViews" : [
        {
            "buffer" : 0,
            "byteLength" : 8076,
            "byteOffset" : 0
        },
        {
            "buffer" : 0,
            "byteLength" : 5384,
            "byteOffset" : 8076
        },
        {
            "buffer" : 0,
            "byteLength" : 8076,
            "byteOffset" : 13460
        },
        {
            "buffer" : 0,
            "byteLength" : 7680,
            "byteOffset" : 21536
        }
    ],
    "buffers" : [
        {
            "byteLength" : 29216,
            "uri" : "data:application/octet-stream;base64,"
        }
    ],
    "cameras" : [
        {
            "name" : "Camera",
            "perspective" : {
                "yfov" : 0.5033799372418416,
                "zfar" : 100,
                "znear" : 0.10000000149011612
            },
            "type" : "perspective"
        }
    ],
    "extensions" : {},
    "materials" : [
        {
            "name" : "Material",
            "pbrMetallicRoughness" : {}
        }
    ],
    "meshes" : [
        {
            "name" : "default",
            "primitives" : [
                {
                    "attributes" : {
                        "NORMAL" : 0,
                        "POSITION" : 2,
                        "TEXCOORD_0" : 1
                    },
                    "indices" : 3,
                    "material" : 0
                }
            ]
        }
    ],
    "nodes" : [
        {
            "mesh" : 0,
            "name" : "default",
            "rotation" : [
                0.7071068286895752,
                0,
                0,
                0.7071067094802856
            ]
        },
        {
            "name" : "Lamp",
            "rotation" : [
                0.16907575726509094,
                0.27217137813568115,
                0.7558802962303162,
                0.570947527885437
            ],
            "translation" : [
                4.076245307922363,
                1.0054539442062378,
                5.903861999511719
            ]
        },
        {
            "camera" : 0,
            "name" : "Camera",
            "rotation" : [
                0.48170700669288635,
                0.21292175352573395,
                0.3342514932155609,
                0.7816000580787659
            ],
            "translation" : [
                7.481131553649902,
                -6.5076398849487305,
                5.34366512298584
            ]
        }
    ],
    "scene" : 0,
    "scenes" : [
        {
            "name" : "Scene",
            "nodes" : [
                0,
                1,
                2
            ]
        }
    ]
}
