{
    "accessors" : [
        {
            "bufferView" : 0,
            "componentType" : 5126,
            "count" : 2614,
            "type" : "VEC3"
        },
        {
            "bufferView" : 1,
            "componentType" : 5126,
            "count" : 2614,
            "type" : "VEC2"
        },
        {
            "bufferView" : 2,
            "componentType" : 5126,
            "count" : 2614,
            "max" : [
                4,
                3.999999761581421,
                4
            ],
            "min" : [
                -3.999999761581421,
                -3.999999761581421,
                -4
            ],
            "type" : "VEC3"
        },
        {
            "bufferView" : 3,
            "componentType" : 5123,
            "count" : 15360,
            "type" : "SCALAR"
        }
    ],
    "asset" : {
        "generator" : "Khronos Blender glTF 2.0 I/O",
        "version" : "2.0"
    },
    "bufferViews" : [
        {
            "buffer" : 0,
            "byteLength" : 31368,
            "byteOffset" : 0
        },
        {
            "buffer" : 0,
            "byteLength" : 20912,
            "byteOffset" : 31368
        },
        {
            "buffer" : 0,
            "byteLength" : 31368,
            "byteOffset" : 52280
        },
        {
            "buffer" : 0,
            "byteLength" : 30720,
            "byteOffset" : 83648
        }
    ],
    "buffers" : [
        {
            "byteLength" : 114368,
            "uri" : "data:application/octet-stream;base64,"
        }
    ],
    "extensions" : {},
    "materials" : [
        {
            "name" : "Material",
            "pbrMetallicRoughness" : {}
        }
    ],
    "meshes" : [
        {
            "name" : "Icosphere",
            "primitives" : [
                {
                    "attributes" : {
                        "NORMAL" : 0,
                        "POSITION" : 2,
                        "TEXCOORD_0" : 1
                    },
                    "indices" : 3,
                    "material" : 0
                }
            ]
        }
    ],
    "nodes" : [
        {
            "mesh" : 0,
            "name" : "Icosphere"
        }
    ],
    "scene" : 0,
    "scenes" : [
        {
            "name" : "Scene",
            "nodes" : [
                0
            ]
        }
    ]
}
