{
	"asset":{
		"generator":"Khronos glTF Blender I/O v3.6.28",
		"version":"2.0"
	},
	"scene":0,
	"scenes":[
		{
			"name":"Scene",
			"nodes":[
				0,
				1,
				2,
				3,
				4,
				5,
				6,
				7,
				8,
				9,
				10,
				11,
				12
			]
		}
	],
	"nodes":[
		{
			"mesh":0,
			"name":"Circle_002",
			"rotation":[
				0,
				0.7071068286895752,
				-0.7071068286895752,
				0
			],
			"scale":[
				-2.0968968868255615,
				-1.6639398336410522,
				-1.6639399528503418
			],
			"translation":[
				6,
				-3.8487820625305176,
				-8
			]
		},
		{
			"mesh":0,
			"name":"Circle_003",
			"rotation":[
				0.5,
				-0.5,
				0.49999988079071045,
				0.5000001192092896
			],
			"scale":[
				-2.0968966484069824,
				-1.6639398336410522,
				-1.6639399528503418
			],
			"translation":[
				-8,
				-3.8487820625305176,
				6
			]
		},
		{
			"mesh":0,
			"name":"Circle_004",
			"rotation":[
				0,
				0.7071068286895752,
				-0.7071068286895752,
				0
			],
			"scale":[
				-2.0968968868255615,
				-1.6639398336410522,
				-1.6639399528503418
			],
			"translation":[
				6,
				-3.8487820625305176,
				0
			]
		},
		{
			"mesh":1,
			"name":"Circle_005",
			"rotation":[
				0.5,
				-0.5,
				0.49999988079071045,
				0.5000001192092896
			],
			"scale":[
				-2.0968966484069824,
				-1.6639398336410522,
				-1.6639399528503418
			],
			"translation":[
				0,
				-3.8487820625305176,
				6
			]
		},
		{
			"mesh":2,
			"name":"Cylinder_044.001",
			"rotation":[
				0,
				1,
				0,
				0
			],
			"scale":[
				-0.699999988079071,
				-2.879999876022339,
				-0.699999988079071
			],
			"translation":[
				0,
				-6.683333396911621,
				0
			]
		},
		{
			"mesh":3,
			"name":"Plane",
			"rotation":[
				0,
				1,
				0,
				0
			],
			"scale":[
				-1,
				-1,
				-1
			],
			"translation":[
				0,
				-3.808030843734741,
				0
			]
		},
		{
			"mesh":4,
			"name":"Plane_000",
			"rotation":[
				0.7071068286895752,
				-0.7071068286895752,
				0,
				0
			],
			"scale":[
				-1.5,
				-1.5,
				-1.5
			],
			"translation":[
				4,
				-1.3811509609222412,
				2
			]
		},
		{
			"mesh":4,
			"name":"Plane_001",
			"rotation":[
				0.7071068286895752,
				-0.7071068286895752,
				0,
				0
			],
			"scale":[
				-1.5,
				-1.5,
				-1.5
			],
			"translation":[
				4,
				-1.3811509609222412,
				-2
			]
		},
		{
			"mesh":4,
			"name":"Plane_002",
			"rotation":[
				-0.4999999403953552,
				0.4999999403953552,
				-0.5,
				0.5000001788139343
			],
			"scale":[
				-1.5000003576278687,
				-1.5000003576278687,
				-1.5000003576278687
			],
			"translation":[
				2,
				-1.3811509609222412,
				4
			]
		},
		{
			"mesh":4,
			"name":"Plane_003",
			"rotation":[
				-0.4999999403953552,
				0.4999999403953552,
				-0.5,
				0.5000001788139343
			],
			"scale":[
				-1.5000003576278687,
				-1.5000003576278687,
				-1.5000003576278687
			],
			"translation":[
				-2,
				-1.3811509609222412,
				4
			]
		},
		{
			"mesh":4,
			"name":"Plane_004",
			"rotation":[
				-0.4999999403953552,
				0.4999999403953552,
				-0.5,
				0.5000001788139343
			],
			"scale":[
				-1.5000003576278687,
				-1.5000003576278687,
				-1.5000003576278687
			],
			"translation":[
				-2,
				-1.3811509609222412,
				-4
			]
		},
		{
			"mesh":4,
			"name":"Plane_005",
			"rotation":[
				0.7071068286895752,
				-0.7071068286895752,
				0,
				0
			],
			"scale":[
				-1.5,
				-1.5,
				-1.5
			],
			"translation":[
				-4,
				-1.3811509609222412,
				-2
			]
		},
		{
			"mesh":4,
			"name":"Plane_006",
			"rotation":[
				-0.4999999403953552,
				0.4999999403953552,
				-0.5,
				0.5000001788139343
			],
			"scale":[
				-1.5000003576278687,
				-1.5000003576278687,
				-1.5000003576278687
			],
			"translation":[
				-2,
				-1.3811509609222412,
				4
			]
		}
	],
	"materials":[
		{
			"doubleSided":true,
			"name":"Material_001",
			"pbrMetallicRoughness":{
				"baseColorFactor":[
					0.6399999856948853,
					0.6399999856948853,
					0.6399999856948853,
					1
				],
				"metallicFactor":0,
				"roughnessFactor":0.5
			}
		}
	],
	"meshes":[
		{
			"name":"Circle.001",
			"primitives":[
				{
					"attributes":{
						"POSITION":0,
						"NORMAL":1,
						"TEXCOORD_0":2
					},
					"indices":3,
					"material":0
				}
			]
		},
		{
			"name":"Circle.004",
			"primitives":[
				{
					"attributes":{
						"POSITION":4,
						"NORMAL":5,
						"TEXCOORD_0":6
					},
					"indices":3,
					"material":0
				}
			]
		},
		{
			"name":"Cylinder.001",
			"primitives":[
				{
					"attributes":{
						"POSITION":7,
						"NORMAL":8,
						"TEXCOORD_0":9
					},
					"indices":10,
					"material":0
				}
			]
		},
		{
			"name":"Plane.003",
			"primitives":[
				{
					"attributes":{
						"POSITION":11,
						"NORMAL":12,
						"TEXCOORD_0":13
					},
					"indices":14,
					"material":0
				}
			]
		},
		{
			"name":"Plane.001",
			"primitives":[
				{
					"attributes":{
						"POSITION":15,
						"NORMAL":16,
						"TEXCOORD_0":17
					},
					"indices":18,
					"material":0
				}
			]
		}
	],
	"accessors":[
		{
			"bufferView":0,
			"componentType":5126,
			"count":48,
			"max":[
				1,
				0,
				0
			],
			"min":[
				-1,
				0,
				-0.9999999403953552
			],
			"type":"VEC3"
		},
		{
			"bufferView":1,
			"componentType":5126,
			"count":48,
			"type":"VEC3"
		},
		{
			"bufferView":2,
			"componentType":5126,
			"count":48,
			"type":"VEC2"
		},
		{
			"bufferView":3,
			"componentType":5123,
			"count":48,
			"type":"SCALAR"
		},
		{
			"bufferView":4,
			"componentType":5126,
			"count":48,
			"max":[
				1,
				0,
				0
			],
			"min":[
				-1,
				0,
				-0.9999999403953552
			],
			"type":"VEC3"
		},
		{
			"bufferView":5,
			"componentType":5126,
			"count":48,
			"type":"VEC3"
		},
		{
			"bufferView":6,
			"componentType":5126,
			"count":48,
			"type":"VEC2"
		},
		{
			"bufferView":7,
			"componentType":5126,
			"count":214,
			"max":[
				1,
				1,
				1
			],
			"min":[
				-1,
				-1,
				-1
			],
			"type":"VEC3"
		},
		{
			"bufferView":8,
			"componentType":5126,
			"count":214,
			"type":"VEC3"
		},
		{
			"bufferView":9,
			"componentType":5126,
			"count":214,
			"type":"VEC2"
		},
		{
			"bufferView":10,
			"componentType":5123,
			"count":282,
			"type":"SCALAR"
		},
		{
			"bufferView":11,
			"componentType":5126,
			"count":108,
			"max":[
				3,
				-2.3841900542720396e-07,
				3
			],
			"min":[
				-3,
				-2.3841900542720396e-07,
				-3
			],
			"type":"VEC3"
		},
		{
			"bufferView":12,
			"componentType":5126,
			"count":108,
			"type":"VEC3"
		},
		{
			"bufferView":13,
			"componentType":5126,
			"count":108,
			"type":"VEC2"
		},
		{
			"bufferView":14,
			"componentType":5123,
			"count":108,
			"type":"SCALAR"
		},
		{
			"bufferView":15,
			"componentType":5126,
			"count":4,
			"max":[
				1,
				0,
				1
			],
			"min":[
				-1,
				0,
				-1
			],
			"type":"VEC3"
		},
		{
			"bufferView":16,
			"componentType":5126,
			"count":4,
			"type":"VEC3"
		},
		{
			"bufferView":17,
			"componentType":5126,
			"count":4,
			"type":"VEC2"
		},
		{
			"bufferView":18,
			"componentType":5123,
			"count":6,
			"type":"SCALAR"
		}
	],
	"bufferViews":[
		{
			"buffer":0,
			"byteLength":576,
			"byteOffset":0,
			"target":34962
		},
		{
			"buffer":0,
			"byteLength":576,
			"byteOffset":576,
			"target":34962
		},
		{
			"buffer":0,
			"byteLength":384,
			"byteOffset":1152,
			"target":34962
		},
		{
			"buffer":0,
			"byteLength":96,
			"byteOffset":1536,
			"target":34963
		},
		{
			"buffer":0,
			"byteLength":576,
			"byteOffset":1632,
			"target":34962
		},
		{
			"buffer":0,
			"byteLength":576,
			"byteOffset":2208,
			"target":34962
		},
		{
			"buffer":0,
			"byteLength":384,
			"byteOffset":2784,
			"target":34962
		},
		{
			"buffer":0,
			"byteLength":2568,
			"byteOffset":3168,
			"target":34962
		},
		{
			"buffer":0,
			"byteLength":2568,
			"byteOffset":5736,
			"target":34962
		},
		{
			"buffer":0,
			"byteLength":1712,
			"byteOffset":8304,
			"target":34962
		},
		{
			"buffer":0,
			"byteLength":564,
			"byteOffset":10016,
			"target":34963
		},
		{
			"buffer":0,
			"byteLength":1296,
			"byteOffset":10580,
			"target":34962
		},
		{
			"buffer":0,
			"byteLength":1296,
			"byteOffset":11876,
			"target":34962
		},
		{
			"buffer":0,
			"byteLength":864,
			"byteOffset":13172,
			"target":34962
		},
		{
			"buffer":0,
			"byteLength":216,
			"byteOffset":14036,
			"target":34963
		},
		{
			"buffer":0,
			"byteLength":48,
			"byteOffset":14252,
			"target":34962
		},
		{
			"buffer":0,
			"byteLength":48,
			"byteOffset":14300,
			"target":34962
		},
		{
			"buffer":0,
			"byteLength":32,
			"byteOffset":14348,
			"target":34962
		},
		{
			"buffer":0,
			"byteLength":12,
			"byteOffset":14380,
			"target":34963
		}
	],
	"buffers":[
		{
			"byteLength":14392,
			"uri":"data:application/octet-stream;base64,"
		}
	]
}
