{
    "accessors" : [
        {
            "bufferView" : 0,
            "componentType" : 5126,
            "count" : 1573,
            "type" : "VEC3"
        },
        {
            "bufferView" : 1,
            "componentType" : 5126,
            "count" : 1573,
            "type" : "VEC2"
        },
        {
            "bufferView" : 2,
            "componentType" : 5126,
            "count" : 1573,
            "max" : [
                20.404155731201172,
                18.698795318603516,
                25.095048904418945
            ],
            "min" : [
                -26.926212310791016,
                -18.69830894470215,
                -25.094772338867188
            ],
            "type" : "VEC3"
        },
        {
            "bufferView" : 3,
            "componentType" : 5123,
            "count" : 8640,
            "type" : "SCALAR"
        }
    ],
    "asset" : {
        "generator" : "Khronos Blender glTF 2.0 I/O",
        "version" : "2.0"
    },
    "bufferViews" : [
        {
            "buffer" : 0,
            "byteLength" : 18876,
            "byteOffset" : 0
        },
        {
            "buffer" : 0,
            "byteLength" : 12584,
            "byteOffset" : 18876
        },
        {
            "buffer" : 0,
            "byteLength" : 18876,
            "byteOffset" : 31460
        },
        {
            "buffer" : 0,
            "byteLength" : 17280,
            "byteOffset" : 50336
        }
    ],
    "buffers" : [
        {
            "byteLength" : 67616,
            "uri" : "data:application/octet-stream;base64,"
        }
    ],
    "extensions" : {},
    "materials" : [
        {
            "name" : "Material",
            "pbrMetallicRoughness" : {}
        }
    ],
    "meshes" : [
        {
            "name" : "default",
            "primitives" : [
                {
                    "attributes" : {
                        "NORMAL" : 0,
                        "POSITION" : 2,
                        "TEXCOORD_0" : 1
                    },
                    "indices" : 3,
                    "material" : 0
                }
            ]
        }
    ],
    "nodes" : [
        {
            "mesh" : 0,
            "name" : "default",
            "rotation" : [
                0.7071068286895752,
                0,
                0,
                0.7071067094802856
            ]
        }
    ],
    "scene" : 0,
    "scenes" : [
        {
            "name" : "Scene",
            "nodes" : [
                0
            ]
        }
    ]
}
