{
    "asset" : {
        "generator" : "Khronos glTF Blender I/O v3.4.50",
        "version" : "2.0"
    },
    "scene" : 0,
    "scenes" : [
        {
            "name" : "Scene",
            "nodes" : [
                0
            ]
        }
    ],
    "nodes" : [
        {
            "mesh" : 0,
            "name" : "Terrain"
        }
    ],
    "materials" : [
        {
            "doubleSided" : true,
            "name" : "Terrain.Material",
            "pbrMetallicRoughness" : {
                "baseColorFactor" : [
                    0.800000011920929,
                    0.800000011920929,
                    0.800000011920929,
                    1
                ],
                "metallicFactor" : 0,
                "roughnessFactor" : 0.5
            }
        }
    ],
    "meshes" : [
        {
            "name" : "Terrain",
            "primitives" : [
                {
                    "attributes" : {
                        "POSITION" : 0,
                        "TEXCOORD_0" : 1,
                        "NORMAL" : 2
                    },
                    "indices" : 3,
                    "material" : 0
                }
            ]
        }
    ],
    "accessors" : [
        {
            "bufferView" : 0,
            "componentType" : 5126,
            "count" : 10404,
            "max" : [
                1,
                0.28880855441093445,
                1
            ],
            "min" : [
                -1,
                0.00024427773314528167,
                -1
            ],
            "type" : "VEC3"
        },
        {
            "bufferView" : 1,
            "componentType" : 5126,
            "count" : 10404,
            "type" : "VEC2"
        },
        {
            "bufferView" : 2,
            "componentType" : 5126,
            "count" : 10404,
            "type" : "VEC3"
        },
        {
            "bufferView" : 3,
            "componentType" : 5123,
            "count" : 15606,
            "type" : "SCALAR"
        }
    ],
    "bufferViews" : [
        {
            "buffer" : 0,
            "byteLength" : 124848,
            "byteOffset" : 0,
            "target" : 34962
        },
        {
            "buffer" : 0,
            "byteLength" : 83232,
            "byteOffset" : 124848,
            "target" : 34962
        },
        {
            "buffer" : 0,
            "byteLength" : 124848,
            "byteOffset" : 208080,
            "target" : 34962
        },
        {
            "buffer" : 0,
            "byteLength" : 31212,
            "byteOffset" : 332928,
            "target" : 34963
        }
    ],
    "buffers" : [
        {
            "byteLength" : 364140,
            "uri" : "data:application/octet-stream;base64,"
        }
    ]
}
